<?xml version="1.0" encoding="UTF-8"?>
<svg id="Layer_1" data-name="Layer 1" xmlns="http://www.w3.org/2000/svg" viewBox="0 0 2612.98 3375.62">
  <defs>
    <style>
      .cls-1 {
        opacity: .7;
      }

      .cls-2 {
        fill: #fff;
      }

      .cls-3 {
        fill: #111a28;
      }

      .cls-4 {
        opacity: .2;
      }

      .cls-4, .cls-5 {
        fill: #371a45;
      }

      .cls-6 {
        opacity: .5;
      }

      .cls-7 {
        fill: #cd8322;
      }

      .cls-8 {
        fill: #c65d17;
      }

      .cls-9 {
        fill: #dbac54;
      }

      .cls-10 {
        opacity: .35;
      }

      .cls-11 {
        fill: #22a7f0;
      }

      .cls-12 {
        fill: #fcef03;
      }

      .cls-13 {
        fill: #fc0;
      }

      .cls-14 {
        fill: #db8216;
      }

      .cls-15 {
        fill: #dd8e37;
      }

      .cls-16 {
        opacity: .25;
      }
    </style>
  </defs>
  <ellipse class="cls-4" cx="1154.23" cy="3210.95" rx="801.28" ry="164.66"/>
  <g>
    <path class="cls-2" d="M1790.18,800.12s-107.21-59.61-87.28-113.78c33.5-91.06,165.27,13.31,165.27,13.31"/>
    <path class="cls-5" d="M1790.16,818.96c-3.1,0-6.24-.77-9.14-2.38-12.41-6.9-120.58-69.38-95.81-136.75,11.35-30.86,31.98-42.46,47.29-46.77,58.75-16.53,138.47,44.77,147.36,51.82,8.15,6.46,9.53,18.3,3.07,26.46-6.46,8.15-18.3,9.53-26.46,3.07-18.67-14.75-79.7-54.69-113.79-45.08-6.45,1.82-15.76,6.24-22.11,23.51-10.85,29.5,48.37,73.93,78.75,90.82,9.09,5.05,12.36,16.52,7.31,25.62-3.44,6.19-9.86,9.69-16.48,9.69Z"/>
    <path class="cls-12" d="M1562.4,1867.96s463.22-153.47,500.25-749.48l-655.79,264.19,155.54,485.29Z"/>
    <g class="cls-16">
      <path class="cls-5" d="M2062.63,1118.47c-37.01,596-500.22,749.51-500.22,749.51l-77.04-240.43,7.56,45.69,69.47,100.71s232.35-83.89,222.61-133.95c-2.91-14.96-150.17-19.78-211.78,12.13-61.61,31.91-106.23-175.83-106.23-175.83h454.36c59.19-90.83,108.59-206.86,130.86-353.63l10.41-4.19Z"/>
    </g>
    <g class="cls-16">
      <polygon class="cls-5" points="1515.51 1627.55 1485.37 1627.55 1436.87 1476.3 1406.87 1382.69 1433.57 1371.95 1467.01 1476.3 1515.51 1627.55"/>
    </g>
    <g class="cls-16">
      <polygon class="cls-5" points="1515.51 1627.55 1485.37 1627.55 1436.87 1476.3 1467.01 1476.3 1515.51 1627.55"/>
    </g>
    <path class="cls-5" d="M1562.4,1886.8c-2.94,0-5.87-.69-8.54-2.05-4.48-2.28-7.87-6.25-9.4-11.04l-155.54-485.29c-3.01-9.4,1.74-19.53,10.9-23.22l655.79-264.19c6-2.42,12.82-1.59,18.06,2.19,5.24,3.78,8.18,9.99,7.78,16.44-19.51,314.05-157.56,505.5-269.93,610.82-122.05,114.39-238.3,153.75-243.19,155.37-1.93,.64-3.93,.96-5.92,.96Zm-132.26-493.2l144.09,449.55c36.47-15.34,123.85-57.61,212.83-141.39,103.24-97.2,229.3-271.4,254.53-554.49l-611.45,246.33Z"/>
    <polygon class="cls-9" points="2594.16 833.54 2486.61 881.95 2594.16 930.4 2594.16 1285.83 2442.87 1334.05 2594.16 1358.25 2594.16 1555.03 18.85 1555.03 18.85 1433.17 148.2 1394.08 18.85 1362.3 18.85 1212.98 179.89 1155.49 18.85 1105.34 18.85 961.81 260.6 971.09 18.85 871.21 18.85 732.63 2594.16 732.63 2594.16 833.54"/>
    <path class="cls-15" d="M2594.16,1285.83l-151.3,48.22,151.3,24.2v196.78h-652.79V967.18l562-36.78c24.11,145.22,90.79,27.97,90.79,27.97v327.45Z"/>
    <polygon class="cls-14" points="2503.36 833.55 2379.19 881.96 2503.36 930.42 2503.36 1285.84 2328.66 1334.06 2503.36 1358.26 2503.36 1555.04 18.83 1555.04 18.83 1433.18 152.19 1394.05 18.83 1362.31 18.83 1212.95 157.6 1155.5 18.83 1105.3 18.83 961.82 241.94 971.1 18.83 871.23 18.83 732.6 2503.36 732.6 2503.36 833.55"/>
    <path class="cls-8" d="M1915.41,919.02c-120.45-7.63-147.53-127.66-155.91-186.42h431.05c1.22,15.68,3.58,33.29,7.39,52.93,15.82,81.51-102.18,144.89-282.53,133.49Z"/>
    <g class="cls-10">
      <polygon class="cls-2" points="2503.35 732.62 2503.35 833.53 2502.93 833.72 2502.93 810.08 18.83 810.08 18.83 732.62 2503.35 732.62"/>
    </g>
    <path class="cls-8" d="M2425.61,900.07l77.74,30.32v355.42l-84.29,45.56s-161.01,20.31-161.36-36.79c-.32-51.87,167.91-43.76,167.91-288.59v-105.93Z"/>
    <path class="cls-8" d="M2503.36,1358.26v196.78H18.83v-121.25H485.48c-31.08-68.28-50.2-143.34-54.67-222.68-19.31-343.46,337.62-637.58,681.13-656.88,343.46-19.31,698.74,243.49,718.05,586.96,5.84,104.16-14.22,203.8-54.67,292.61h564.02c47.61,0,86.27-38.66,86.27-86.27l77.74,10.74Z"/>
    <polygon class="cls-7" points="2425.61 863.86 2425.61 900.07 2379.18 881.99 2425.61 863.86"/>
    <polygon class="cls-7" points="2328.65 1334.04 2425.61 1307.29 2425.61 1347.5 2328.65 1334.04"/>
    <g class="cls-6">
      <path class="cls-5" d="M345.91,1069.03l63.04-1.95,63.04-1.51c42.03-.93,84.06-2.19,126.08-2.85,84.06-1.64,168.11-2.69,252.16-3.73,84.06-.66,168.11-1.62,252.16-1.75l126.08-.44,126.08,.05,126.08,.05,126.08,.5c84.06,.22,168.11,.86,252.16,1.54,168.11,1.4,336.22,3.7,504.33,7.27,5.2,.11,9.33,4.42,9.22,9.62-.11,5.06-4.21,9.1-9.22,9.22-168.11,3.57-336.22,5.87-504.33,7.27-84.05,.68-168.11,1.32-252.16,1.54l-126.08,.5-126.08,.05-126.08,.05-126.08-.44c-84.05-.14-168.11-1.09-252.16-1.75-84.05-1.04-168.11-2.09-252.16-3.73-42.03-.66-84.05-1.92-126.08-2.85l-63.04-1.51-63.04-1.95c-3.64-.11-6.5-3.15-6.39-6.8,.11-3.5,2.94-6.27,6.39-6.39Z"/>
    </g>
    <g class="cls-6">
      <path class="cls-5" d="M422.4,1329.45c141.08-5.55,282.16-8.01,423.23-10.05,70.54-.66,141.08-1.62,211.62-1.75l105.81-.44,105.81,.05,105.81,.05,105.81,.5c70.54,.22,141.08,.86,211.62,1.54,141.08,1.4,282.16,3.7,423.23,7.27,5.2,.13,9.31,4.46,9.18,9.66-.13,5.03-4.2,9.04-9.18,9.18-141.08,3.57-282.16,5.87-423.23,7.27-70.54,.68-141.08,1.32-211.62,1.54l-105.81,.5-105.81,.05-105.81,.05-105.81-.44c-70.54-.14-141.08-1.09-211.62-1.75-141.08-2.04-282.16-4.49-423.23-10.05-3.64-.14-6.48-3.21-6.33-6.85,.14-3.46,2.94-6.19,6.33-6.33Z"/>
    </g>
    <g class="cls-6">
      <path class="cls-5" d="M354.78,872.57c38.92-1.09,77.83-1.89,116.75-2.6,38.92-.67,77.83-1.7,116.75-2.09l233.5-2.85c77.83-.5,155.67-1.21,233.5-1.31l116.75-.32,116.75,.2,233.5,.4,116.75,.31,116.75,.87c77.83,.67,155.67,.95,233.5,1.94,77.83,1.08,155.67,1.79,233.5,3.34,3.9,.08,7,3.3,6.92,7.2-.08,3.8-3.16,6.84-6.92,6.92-77.83,1.55-155.67,2.26-233.5,3.34-77.83,.99-155.67,1.27-233.5,1.94l-116.75,.87-116.75,.31-233.5,.4-116.75,.2-116.75-.32c-77.83-.1-155.67-.82-233.5-1.32l-233.5-2.85c-38.92-.39-77.83-1.41-116.75-2.09-38.92-.71-77.83-1.51-116.75-2.6-2.73-.08-4.88-2.35-4.8-5.08,.07-2.63,2.2-4.73,4.8-4.8Z"/>
    </g>
    <path class="cls-5" d="M2594.14,1573.88H18.84c-10.4,0-18.84-8.43-18.84-18.84v-121.87c0-8.3,5.44-15.63,13.39-18.03l63.48-19.19-62.52-15.35c-8.42-2.07-14.34-9.62-14.34-18.29v-149.35c0-7.96,5.01-15.06,12.5-17.74l107.95-38.52-107.22-33.4c-7.87-2.45-13.23-9.74-13.23-17.98v-143.52c0-5.12,2.09-10.02,5.78-13.57,3.69-3.55,8.7-5.43,13.78-5.25l136.36,5.24L11.64,888.61c-7.05-2.91-11.64-9.78-11.64-17.41v-138.58c0-10.4,8.43-18.84,18.84-18.84H2594.14c10.4,0,18.84,8.43,18.84,18.84v100.91c0,7.41-4.34,14.13-11.1,17.17l-69.4,31.26,69.4,31.26c6.76,3.04,11.1,9.76,11.1,17.17v355.43c0,8.2-5.31,15.46-13.12,17.95l-75.87,24.18,73.13,11.71c9.14,1.46,15.86,9.35,15.86,18.6v196.77c0,10.4-8.43,18.84-18.84,18.84ZM37.67,1536.21H2575.31v-161.88l-135.42-21.68c-8.61-1.38-15.15-8.49-15.8-17.19-.65-8.7,4.75-16.71,13.06-19.35l138.16-44.03v-329.49l-96.42-43.44c-6.76-3.04-11.1-9.76-11.1-17.17s4.34-14.13,11.1-17.17l96.42-43.44v-69.9H37.67v107.15l230.14,95.08c8.43,3.49,13.16,12.51,11.21,21.43-1.95,8.91-9.92,15.18-19.12,14.8l-222.22-8.54v110.08l147.82,46.05c7.74,2.41,13.07,9.5,13.23,17.6,.17,8.1-4.87,15.4-12.5,18.12l-148.55,53.01v121.3l115,28.24c8.24,2.02,14.11,9.31,14.34,17.8,.22,8.49-5.25,16.07-13.38,18.53l-115.96,35.05v89.05Z"/>
    <path class="cls-5" d="M2503.36,1573.88H519.89c-10.4,0-18.84-8.43-18.84-18.84s8.43-18.84,18.84-18.84h1964.63v-161.88l-135.42-21.68c-8.61-1.38-15.15-8.49-15.8-17.19-.65-8.7,4.75-16.71,13.06-19.36l138.16-44.03v-329.49l-96.42-43.44c-6.76-3.04-11.1-9.76-11.1-17.17s4.34-14.13,11.1-17.17l96.42-43.44v-69.9H519.89c-10.4,0-18.84-8.43-18.84-18.84s8.43-18.84,18.84-18.84h1983.47c10.4,0,18.84,8.43,18.84,18.84v100.91c0,7.41-4.34,14.13-11.1,17.17l-69.4,31.26,69.4,31.26c6.76,3.04,11.1,9.76,11.1,17.17v355.43c0,8.2-5.3,15.46-13.12,17.95l-75.87,24.18,73.13,11.71c9.14,1.46,15.86,9.35,15.86,18.6v196.77c0,10.4-8.43,18.84-18.84,18.84Z"/>
    <path class="cls-2" d="M1802.06,649.85c-26.8,43.98-2.17,179.97,64.08,206.24,56.56,22.44,256.54-8.67,286.21-39.09,33.43-34.28,25.6-114.11,.8-132.55s-282.7-146.85-351.09-34.6Z"/>
    <path class="cls-12" d="M1802.06,649.85c-26.8,43.98-2.17,179.97,64.08,206.24,56.56,22.44,256.54-8.67,286.21-39.09,33.43-34.28,25.6-114.11,.8-132.55s-282.7-146.85-351.09-34.6Z"/>
    <g class="cls-16">
      <path class="cls-5" d="M2152.33,817.01c-29.67,30.42-229.65,61.54-286.2,39.08-63-25-88.34-149.13-67.67-199.09,7.06,46.43,29.43,95.31,66.49,113.53,88.53,43.51,266.43,27.12,292.94-31.08,4.19-9.23,7.77-19.64,10.55-30.56,10.83,31.88,8.76,82.59-16.1,108.11Z"/>
    </g>
    <path class="cls-5" d="M1927.59,882.27c-28.76,0-53.24-2.65-68.4-8.66-31.46-12.48-57.42-45.16-73.1-92.01-14.75-44.06-21.07-107.14-.11-141.54,16.46-27.03,42.81-44.23,78.29-51.13,110.29-21.44,278.18,64.09,300.12,80.41,15.47,11.51,26.16,36.68,28.59,67.35,3.02,37.99-7.14,72.94-27.16,93.47-27.65,28.36-152.13,52.11-238.24,52.11Zm-24.57-259.16c-11.05,0-21.64,.87-31.56,2.8-25,4.86-42.44,15.9-53.31,33.75h0c-10.29,16.89-11.81,63.74,3.66,109.99,11.92,35.62,30.61,60.75,51.27,68.95,53.62,21.27,244.45-12.86,265.77-34.73,12.18-12.48,18.68-37.68,16.58-64.19-1.85-23.26-9.28-36.94-13.53-40.1-16.51-12.28-144.16-76.46-238.89-76.46Zm-100.96,26.75h0Z"/>
    <path class="cls-12" d="M930.63,1580.62l-6.17,699.67-2.54,288.96s-316.64,35.9-417.27-82.02c-37.22-43.72-63.19-174.24-74.13-318.25-13.23-175.43-4.24-370.96,33.78-453.83,61.04-133.02,355.69-143.3,466.32-134.52Z"/>
    <g class="cls-16">
      <path class="cls-5" d="M924.47,2280.28l-2.54,288.96s-316.64,35.9-417.27-82.02c-37.22-43.72-63.19-174.24-74.13-318.25l194.8-46.17s68.7-2.75,85.11,215.2c4.63,60.99,99.05,79.01,165.65,26.25,24.14-19.15,39.11-48.99,48.38-83.96Z"/>
    </g>
    <path class="cls-5" d="M814.75,2593.36c-104.97,0-256.96-14.89-324.39-93.93-48.73-57.11-74.11-232.22-81.62-377.05-7.46-143.86-1.27-328.45,38.48-415.1,66.77-145.54,372.65-154.34,484.89-145.45,10.37,.82,18.11,9.89,17.29,20.26-.82,10.37-9.95,18.13-20.26,17.29-123.09-9.76-394.48,7.63-447.68,123.6-30.41,66.28-44.18,222.28-35.1,397.44,8.9,171.56,38.1,314.04,72.66,354.55,92.95,108.95,397.75,75.9,400.82,75.56,10.32-1.17,19.66,6.26,20.83,16.6,1.17,10.34-6.26,19.66-16.59,20.83-4.84,.55-49.43,5.4-109.32,5.4Z"/>
    <path class="cls-2" d="M446.97,2137.78l167.89,3.84c14.99,.34,27.87,10.73,31.3,25.32,12.57,53.44,35.2,178.38-15.11,222.65-41.76,36.74-112.69,36.38-155.96,3.47-48.4-36.82-59.36-159.94-61.79-221.05-.76-19,14.67-34.66,33.67-34.23Z"/>
    <g class="cls-16">
      <path class="cls-5" d="M646.15,2166.96c12.6,53.42,35.2,178.37-15.12,222.62-41.77,36.76-112.68,36.39-155.97,3.47-29.75-22.66-45.35-77.96-53.51-131.37,8.93,26.43,21.89,47.6,37.35,61.13,88.56,77.5,146.45-22.33,146.45-22.33,0,0,12.14,22.88,20.91,23.75,36.68,3.66,23.22-109.87,14.89-168.46,2.31,3.28,4.04,7.05,5,11.19Z"/>
    </g>
    <path class="cls-5" d="M551.43,2436.34c-31.33,0-62.88-9.37-87.74-28.29-51.01-38.8-65.79-149.37-69.21-235.29-.57-14.22,4.83-28.2,14.81-38.35,9.98-10.15,23.86-15.78,38.12-15.46h0l167.89,3.84c23.58,.54,43.81,16.92,49.2,39.84,16.21,68.88,35.03,191.8-21,241.1-24.62,21.67-58.22,32.6-92.06,32.61Zm-105.22-279.73c-3.82,0-7.38,1.49-10.06,4.21-2.75,2.8-4.18,6.51-4.03,10.44,4.25,106.83,24.58,184.14,54.37,206.81,37.54,28.56,98.04,27.36,132.11-2.62,34.98-30.77,27.69-125.66,9.22-204.19-1.46-6.21-6.97-10.66-13.4-10.8l-167.88-3.84h0c-.11,0-.22,0-.34,0Z"/>
    <path class="cls-5" d="M603.94,2202.8c.6,19.26,3.11,39.65,4.18,60.21,1.14,20.6,1.37,41.7-1.6,63.19-2.99,21.35-9.32,43.66-22.85,63.33-6.71,9.77-15.2,18.6-24.86,25.75-9.66,7.18-20.38,12.67-31.34,16.75-9.76,3.64-20.61-1.33-24.25-11.08-3.64-9.76,1.33-20.61,11.08-24.25,.44-.16,.88-.31,1.32-.44l.07-.02c16.42-4.73,30.74-13.3,41.21-26.44,10.58-13.03,17.31-30.2,21.23-48.55,3.96-18.4,5.28-37.96,5.61-57.76,.43-19.89-.62-39.87,.24-61.07,.22-5.51,4.87-9.79,10.37-9.56,5.25,.21,9.39,4.45,9.57,9.62v.31Z"/>
    <path class="cls-5" d="M558.82,1687.22c23.03-1.44,45.91-2.36,68.91-3,22.98-.64,45.99-.87,69.07-.6,23.08,.23,46.21,.98,69.49,2.78,23.32,1.87,46.63,4.15,70.78,9.98,10.12,2.44,16.35,12.63,13.9,22.75-2.44,10.12-12.63,16.35-22.75,13.9-.48-.12-.95-.25-1.42-.4l-.11-.03c-19.92-6.54-42.04-10.62-64.07-14.09-22.12-3.46-44.61-5.97-67.18-7.96-22.57-2.04-45.25-3.59-67.98-4.73-22.7-1.15-45.53-2.01-68.2-2.37h-.08c-4.48-.07-8.06-3.76-7.99-8.25,.07-4.26,3.44-7.7,7.61-7.98Z"/>
    <path class="cls-2" d="M1771.64,1711.96v-.89c.47,.05,.47,.33,0,.89Z"/>
    <path class="cls-2" d="M1771.64,1711.96v-.89c.47,.05,.47,.33,0,.89Z"/>
    <path class="cls-2" d="M1771.64,1711.07c.47,.05,.47,.33,0,.89v-.89Z"/>
    <path class="cls-12" d="M1630.37,2239.82s-53.62,379.92-108.23,727.53c0,0,148.1,40.28,149.12,129.75,1.29,112.71-121.48,119.91-271.87,120-107.56,.06-183.59-24.43-228.48-52.66-97.81-61.51,85.69-171.45-73.95-965.5"/>
    <g class="cls-16">
      <path class="cls-5" d="M1666.71,3132.48c-23.3,78.91-134.53,84.54-267.31,84.63-107.57,.05-183.62-24.43-228.49-52.66-97.81-61.52,85.67-171.47-73.94-965.54l533.41,40.93s-13.6,96.22-34.09,236.18c-25.08,23.4-50.8,42.91-75.85,59.15-115.08,74.6-195.74,191.9-222.19,326.47-25.08,127.56-42.89,237.18,17.03,274.87,44.87,28.23,112.77,38.26,211.28,35.82,55.19-1.36,102.31-16.22,140.15-39.86Z"/>
    </g>
    <path class="cls-5" d="M1398.98,3235.93c-130.31,0-205.1-34.79-238.1-55.55-48.07-30.23-42.38-72.13-32.04-148.19,16.41-120.74,46.97-345.48-50.35-829.54-2.05-10.2,4.56-20.13,14.75-22.18,10.2-2.05,20.13,4.55,22.18,14.75,98.57,490.28,67.46,719.11,50.75,842.04-10.33,75.98-11.76,94.55,14.76,111.22,29.57,18.59,97.21,49.77,218.04,49.77h.4c100.52-.06,193.93-3.34,232.51-42.39,14.11-14.27,20.82-33.43,20.54-58.56-.7-61.53-97.87-101.56-135.24-111.79-9.25-2.53-15.14-11.62-13.65-21.09,53.96-343.48,107.65-723.44,108.19-727.23,1.46-10.3,11.01-17.48,21.28-16.02,10.3,1.45,17.47,10.98,16.02,21.28-.53,3.74-52.61,372.35-105.77,711.81,41.2,14.19,145.87,58.51,146.83,142.62,.4,35.21-10.16,63.97-31.41,85.47-48.85,49.44-146.33,53.52-259.29,53.58h-.42Z"/>
    <g class="cls-10">
      <path class="cls-5" d="M1193.71,2514.4c-.78-15.1-1.73-30.7-2.92-46.85,1.14,16.15,2.14,31.75,2.92,46.85Z"/>
    </g>
    <g class="cls-10">
      <path class="cls-5" d="M1189.79,2454.41c-.68-8.8-1.41-17.79-2.24-26.92,.78,9.12,1.55,18.11,2.24,26.92Z"/>
    </g>
    <g class="cls-10">
      <path class="cls-5" d="M1183.45,2385.29c-.87-8.39-1.82-16.97-2.83-25.64,1,8.67,1.92,17.24,2.83,25.64Z"/>
    </g>
    <g class="cls-10">
      <path class="cls-5" d="M1116.69,2319.71c-.93-10.24-1.96-20.57-3.03-31.14,1.07,10.57,2.09,20.95,3.03,31.14Z"/>
    </g>
    <path class="cls-2" d="M1621.98,2325.65c-29.12,234.45-541.57,340.79-763.87,173.82-19.08-14.39-36.01-30.76-50.31-49.23-14.3-18.38-25.93-38.87-34.46-61.57-7.36-19.41-12.43-40.37-14.91-63.02-20.49-185.96-20.16-397.86,3.28-628.27,2.91-28.74,6.14-57.77,9.8-87.07,1.13-8.96,2.25-17.91,3.42-26.91,1.36-10.08,2.72-20.21,4.13-30.38,7.22-52.19,15.61-105.27,25.13-159.05,8.21-46.09,6.24-47.03,9.24-93.82,3.1-46.09,176.12-48.2,349.47-20.73,127.59,27.01,314.3,51.11,350.78,155.16,.61,6.75,2.02,14.02,3.85,21.52,4.41,18.01,11.44,37.14,16.83,51.95,12.43,33.95,30.24,99.59,47.26,183.62,16.97,83.84,33.15,185.96,42.29,292.96,9.75,113.52,11.53,232.48-1.92,341.03Z"/>
    <path class="cls-12" d="M1621.97,2325.68c-29.15,234.45-541.56,340.78-763.87,173.8-19.12-14.41-36.02-30.75-50.34-49.21-14.32-18.41-25.95-38.9-34.47-61.59-7.34-19.4-12.43-40.36-14.88-63-.8-7.2-1.55-14.36-2.26-21.61-4.24-41.67-7.39-84.67-9.46-128.79-7.06-147.15-2.35-307.44,14.97-477.9,.33-3.01,.61-6.03,.94-9.09v-.05c2.68-25.76,5.6-51.66,8.85-77.93,1.13-8.95,2.26-17.89,3.44-26.89,.28-2.17,.57-4.33,.89-6.5,1.08-7.91,2.12-15.87,3.25-23.87,7.2-52.22,15.59-105.29,25.1-159.06,8.24-46.1,6.26-47.04,9.28-93.85,3.06-46.1,176.11-48.17,349.44-20.72,127.61,27.03,314.32,51.14,350.76,155.16,.61,6.78,2.02,14.03,3.86,21.52,4.43,18.04,11.44,37.15,16.86,51.99,5.93,16.2,13.09,39.65,20.81,68.84,5.79,21.99,11.91,47.23,18.08,75.2,2.78,12.67,5.56,25.85,8.33,39.55,17,83.82,33.15,185.95,42.33,292.98,9.75,113.48,11.49,232.48-1.93,341.01Z"/>
    <g class="cls-16">
      <path class="cls-5" d="M869.69,2347.67c-37.2,.28-70.02-1.79-98.65-5.18-4.14-41.11-7.25-83.39-9.32-126.9,17.47,2.64,34.99,4.19,52.17,4.99,6.83,33.62,17.42,65.41,33.39,92.53,7.16,12.15,14.64,23.64,22.41,34.56Z"/>
    </g>
    <path class="cls-5" d="M1602.42,1750.63c12.22,34.57,19.96,70.13,25.82,105.96,1.44,8.96,2.66,17.95,3.91,26.94l3.26,27.03c2.12,18.03,4.03,36.09,5.75,54.17,6.88,72.32,10.47,145.07,9.61,218.01-.59,36.47-2.41,72.98-5.53,109.46l-2.91,27.34c-.49,4.56-.88,8.99-1.81,14.13-.82,4.96-1.52,9.95-2.87,14.79-4.59,19.56-12.34,38.23-22.27,55.31-19.93,34.27-47.89,62.03-78.29,84.64-30.45,22.81-63.71,40.67-97.9,55.55-68.65,29.35-141.49,46.24-215.08,53.57-73.59,7.05-148.56,4.56-221.64-12.15-18.23-4.31-36.34-9.32-54.15-15.58-17.78-6.33-35.28-13.66-52.3-22.23-33.77-17.52-66.01-39.88-92.1-69.12-13.08-14.5-24.68-30.47-34.37-47.57-9.67-17.13-17.07-35.47-22.59-54.22-1.25-4.72-2.83-9.38-3.77-14.16l-3.01-14.31c-1.45-9.47-3.04-19.53-3.75-28.32-1.67-18.11-3.82-36.18-5.1-54.32-11.9-144.98-11.17-290.52-1.97-435.23,9.57-144.73,27.66-288.71,52.63-431.39,3.02-17.89,6.31-35.05,7.63-51.57,.69-8.3,1.04-17.24,1.55-26.32l.78-13.65,.43-6.86,.11-1.72c.12-1.07,.32-2.37,.52-3.55,.48-2.37,.81-4.9,1.75-7.03,3.31-9.44,9.28-15.23,14.67-19.91,5.44-4.18,10.88-7.3,16.03-9.57,10.37-4.64,20.23-7.38,29.92-9.51,19.34-4.11,38.13-6.04,56.8-7.19,37.29-2.13,74.03-1.15,110.6,1.11,36.55,2.35,72.88,6.19,109.04,11.17,9.06,1.29,17.95,2.55,27.37,4.05l6.97,1.09,6.83,1.41,13.37,2.77,52.97,10.69c35.48,7.24,71.19,14.93,106.71,24.98,35.45,10.16,71.01,22.31,104.73,41.2,16.78,9.51,33.05,21,47.46,35.38,14.46,14.24,26.34,32.36,33.5,52.33,.51,1.41,.83,2.85,.97,4.28l.02,.22c1,10.4,3.89,22.05,7.35,33.58,3.49,11.61,7.65,23.27,11.98,35.23,3.54,9.78-1.51,20.58-11.29,24.13-9.73,3.53-20.49-1.49-24.08-11.18-4.44-11.99-8.96-24.32-12.91-37.1-3.91-12.85-7.51-26.01-9.11-41.01l.99,4.5c-5.22-13.87-13.46-26.71-24.76-37.67-11.21-11-24.63-20.52-39.25-28.64-29.39-16.16-62.52-27.63-96.31-37.1-33.89-9.44-68.74-16.82-103.9-23.83l-53.06-10.47-13.11-2.66-6.41-1.3-6.39-.96-26.13-3.75c-35.27-4.71-70.68-8.3-106.08-10.42-35.36-2.04-70.83-2.79-105.51-.65-17.28,1.12-34.44,3.05-50.34,6.51-7.9,1.74-15.44,4.05-21.51,6.81-3.12,1.34-5.43,2.9-7.18,4.15-1.26,1.23-1.95,2.06-1.45,1.35-.13-.12,.26-.29,.18-.49,0-.07-.03-.27-.09-.22l-.1,1.66-.39,6.63-.7,13.34c-.45,8.92-.78,17.99-1.58,27.65-1.58,19.44-5.15,37.73-8.09,55.37-24.67,141.33-42.48,283.85-51.87,426.85-9.02,142.98-9.64,286.54,2.13,428.98,1.27,17.82,3.39,35.55,5.04,53.33,.76,9.18,2.11,16.93,3.33,25.26l2.56,12.15c.78,4.07,2.16,7.96,3.2,11.95,4.69,15.78,10.8,31.09,18.8,45.4,8.05,14.28,17.69,27.66,28.7,39.96,21.89,24.77,49.77,44.38,79.78,60.1,15.16,7.69,30.92,14.37,47.07,20.18,16.19,5.75,32.83,10.42,49.66,14.47,67.55,15.73,138.55,18.47,208.32,11.99,69.77-6.69,139.07-22.6,203.16-49.78,31.89-13.75,62.6-30.18,89.95-50.55,27.39-20.18,51.55-44.43,68-72.58,8.22-14.04,14.45-29.01,18.15-44.52,3.62-14.75,4.74-33.38,6.88-50.8,3.14-35.33,5.04-70.85,5.74-106.45,1.08-71.23-2.18-142.68-8.72-213.88-3.23-35.62-7.48-71.14-11.81-106.67-3.97-35.59-7.35-71.25-7.67-107.67v-.03c-.05-5.27,4.19-9.58,9.46-9.63,4.18-.04,7.76,2.64,9.08,6.36Z"/>
    <path class="cls-5" d="M1356.2,2811.21c-103.64,0-189.92-22.22-195.77-23.76-10.06-2.65-16.06-12.95-13.41-23.01,2.65-10.06,12.94-16.06,23.01-13.42,2.23,.59,225.14,57.86,376.91-13.84,9.4-4.44,20.63-.42,25.08,8.99,4.44,9.41,.42,20.63-8.99,25.08-64.73,30.57-139.44,39.97-206.82,39.97Z"/>
    <path class="cls-5" d="M1518.83,2985.89c-6.36-1.45-13.84-2.78-20.9-3.84-7.16-1.11-14.39-2.02-21.62-2.71-14.48-1.4-29.03-2.15-43.52-1.88-14.46,.39-28.85,1.63-42.93,4.24-13.97,2.86-27.56,7.06-40.2,13.21l-.37,.18c-4.68,2.28-10.31,.33-12.59-4.35-2.12-4.36-.53-9.58,3.47-12.1,13.78-8.63,28.7-14.98,43.96-19.79,15.31-4.54,30.91-7.52,46.57-9.58,15.67-1.93,31.38-2.77,47.09-2.88,7.86-.06,15.72,.1,23.59,.5,7.98,.38,15.52,.88,24.06,1.91,10.35,1.24,17.73,10.62,16.49,20.97-1.24,10.35-10.62,17.73-20.97,16.49-.66-.08-1.3-.19-1.94-.33l-.21-.05Z"/>
    <path class="cls-12" d="M782.18,3248.16c257.99,9.63,397.56,1.25,409.05-174.27,16.55-252.46,37-546.6,37-546.6l-368.39-286.57-97.06-75.48c-.36,21.25-.68,42.23-.86,63.05-5.07,437.31,17.46,773.43,17.46,773.43,0,0-140.75,37.76-150.16,137.5-7.01,74.28,62.19,105.54,152.96,108.94Z"/>
    <g class="cls-16">
      <path class="cls-5" d="M1230.53,2518.7s-22.74,302.73-39.32,555.17c-11.49,175.55-151.06,183.93-409.01,174.27-87.11-3.25-154.4-32.16-153.41-100.16,23.83,8.29,52.36,12.71,83.49,13.89,258,9.61,397.57,1.22,409.06-174.27,13.33-203.94,11.79-386.72,40.6-432.15,14.55-22.94,68.6-36.76,68.6-36.76Z"/>
    </g>
    <path class="cls-5" d="M1237.62,2527.92c2.45,31.13,2.29,62.07,1.63,92.97-.55,30.92-2.77,61.72-4.69,92.53l-11.72,184.91-5.86,92.45-2.93,46.23-1.46,23.11c-.51,7.74-.89,15.21-1.69,23.63-.53,8.19-1.9,16.45-3.06,24.68-1.67,8.26-3.23,16.51-5.73,24.73-4.71,16.4-11.53,32.71-21.15,47.69-9.57,14.99-21.98,28.4-36.04,39.18-14.04,10.83-29.51,19.13-45.27,25.42-31.64,12.32-63.94,18.11-95.68,21.58-31.8,3.38-63.33,4.53-94.62,4.71-31.31,.2-62.42-.49-93.44-1.46l-23.24-.79-11.63-.43-12.16-.71c-16.23-1.16-32.54-2.98-48.88-6.65-16.31-3.62-32.74-8.43-48.64-16.38-15.78-7.96-31.37-19.05-43.18-34.68-11.94-15.49-18.6-35.33-19.42-54.04-.81-18.57,1.78-36.99,8.75-53.96,3.18-8.58,7.66-16.45,12.32-24.08,4.95-7.4,10.23-14.53,16.15-20.9,11.67-12.93,24.93-23.72,38.74-33.1,13.86-9.34,28.4-17.16,43.29-23.94,7.45-3.39,14.99-6.51,22.65-9.35,7.8-2.86,15.11-5.38,23.84-7.79h.04s-13.91,19.44-13.91,19.44c-4.38-70.01-7.5-139.67-10.14-209.51-2.56-69.81-4.64-139.62-5.9-209.46-1.28-69.83-2.16-139.68-2.16-209.53-.23-69.85,.54-139.7,1.56-209.55,.15-10.4,8.71-18.71,19.11-18.56,10.4,.15,18.71,8.71,18.56,19.11v.11c-1.02,69.6-1.79,139.22-1.56,208.84,0,69.62,.88,139.24,2.16,208.86,1.26,69.61,3.33,139.21,5.88,208.78,2.61,69.52,5.75,139.21,10.08,208.4,.56,9.02-5.28,16.96-13.62,19.37l-.3,.08h-.01c-6.14,1.82-13.41,4.4-20.05,7-6.77,2.65-13.46,5.56-20.01,8.69-13.12,6.23-25.69,13.4-37.36,21.46-23.19,16.06-43.02,36.41-51.87,60.21-4.79,11.69-6.21,24.6-5.62,36.78,.73,12.1,4.6,22.75,11.59,31.74,6.94,9.02,17.07,16.47,28.85,22.26,11.84,5.74,25.25,9.77,39.04,12.8,13.8,3.12,28.28,4.72,42.83,5.74l10.96,.63,11.52,.41,23.05,.75c30.72,.93,61.36,1.56,91.83,1.33,30.46-.21,60.73-1.39,90.36-4.58,29.56-3.22,58.57-8.75,84.57-18.93,25.85-10.35,47.82-25.92,61.98-48.01,7.17-10.95,12.55-23.35,16.47-36.56,2.08-6.56,3.41-13.48,4.89-20.34,1.01-7.05,2.29-14.02,2.79-21.26,.75-6.95,1.24-14.9,1.8-22.56l1.65-23.11,3.3-46.21,6.61-92.43,13.22-184.86c4.12-61.64,9.21-123.21,22.16-184.24,1.09-5.14,6.14-8.42,11.28-7.33,4.22,.9,7.19,4.46,7.51,8.54v.09Z"/>
    <path class="cls-5" d="M984.66,2829.44c-130.25,0-218.44-38.63-223.92-41.09-9.49-4.26-13.73-15.41-9.46-24.9,4.26-9.48,15.4-13.72,24.88-9.47,2.13,.95,192.67,83.71,423.69-.51,9.77-3.56,20.58,1.47,24.15,11.25,3.56,9.77-1.47,20.58-11.25,24.15-83.43,30.41-161.3,40.58-228.09,40.58Z"/>
    <path class="cls-5" d="M775.02,2983.33c8.88-1.01,16.78-1.51,25.12-1.88,8.23-.39,16.44-.55,24.66-.49,16.43,.12,32.86,.94,49.24,2.86,16.38,2.05,32.71,4.98,48.76,9.51,16.01,4.77,31.71,11.07,46.31,19.76,4.47,2.66,5.94,8.44,3.28,12.91-2.49,4.18-7.7,5.74-12.02,3.75l-.39-.18c-13.44-6.25-27.84-10.46-42.61-13.33-14.87-2.64-30.06-3.85-45.29-4.24-15.26-.28-30.6,.48-45.85,1.88-7.62,.7-15.24,1.61-22.8,2.72-7.46,1.06-15.32,2.39-22.1,3.86l-.2,.04c-10.18,2.2-20.22-4.27-22.42-14.45-2.2-10.18,4.27-20.22,14.45-22.42,.62-.13,1.25-.24,1.87-.31Z"/>
    <circle class="cls-2" cx="1634.97" cy="2205.71" r="75.98" transform="translate(-1080.8 1802.14) rotate(-45)"/>
    <g class="cls-10">
      <path class="cls-5" d="M1710.91,2207.55c-1.02,41.95-35.83,75.16-77.78,74.14-41.95-1.02-75.16-35.89-74.14-77.84,.28-11.59,3.15-22.57,8.09-32.3,11.57,25.95,37.33,44.39,67.63,45.13,30.3,.74,56.93-16.43,69.68-41.79,4.47,9.95,6.8,21.06,6.51,32.65Z"/>
    </g>
    <path class="cls-5" d="M1635,2300.53c-.78,0-1.56,0-2.34-.03-52.27-1.27-93.75-44.83-92.48-97.09,1.27-52.26,44.72-93.81,97.09-92.48,52.27,1.27,93.75,44.83,92.48,97.09-1.25,51.48-43.54,92.51-94.76,92.51Zm-.05-151.96c-30.87,0-56.35,24.72-57.11,55.75-.77,31.5,24.24,57.75,55.74,58.52,31.39,.75,57.75-24.24,58.52-55.74,.77-31.5-24.24-57.75-55.74-58.52-.47-.01-.94-.02-1.41-.02Z"/>
    <g class="cls-16">
      <path class="cls-5" d="M813.89,2220.58c-17.19-.8-34.7-2.35-52.17-4.99,1.93,40.92,4.8,80.8,8.62,119.6h-9.18c-19.73-106.47-15.02-217.31-17.42-327.5l67.15-46.81c-5.79,62.53-15.49,168.01,3.01,259.69Z"/>
    </g>
    <g class="cls-16">
      <path class="cls-5" d="M1613.88,2360.38c-40.59,116.21-210.06,198.85-388.29,217.64l4.94-59.33c99.83-3.53,197.44-34.66,272.97-75.48l-387.68,13.66c-47.56,1.65-87.77-35.83-89.52-83.39l-1.32-38.85c-43.7,6.73-83.72,10.55-120.08,12.15l-14.46-11.58h-29.34c-4.76-7.11-9.37-14.46-13.84-22.08-15.96-27.12-26.56-58.91-33.39-92.53,106.7,4.9,201.07-20.86,201.07-20.86,1.84,.99,3.63,2.03,5.42,3.11l10.17-45.77c-1.51-41.67,3.01-125.63,49.96-134.72,5.6-1.04,15.87,48.27,21.71,48.03l401.43-14.13c47.56-1.65,87.87,35.88,89.42,83.44l5.98,169.19,1.6,44.45c.28,7.96-.57,15.77-2.35,23.17,5.65-5.37,10.88-10.74,15.59-16.1Z"/>
    </g>
    <g class="cls-16">
      <path class="cls-5" d="M869.69,2347.67c-37.2,.28-70.02-1.79-98.65-5.18-4.14-41.11-7.25-83.39-9.32-126.9,17.47,2.64,34.99,4.19,52.17,4.99,6.83,33.62,17.42,65.41,33.39,92.53,7.16,12.15,14.64,23.64,22.41,34.56Z"/>
    </g>
    <path class="cls-2" d="M1551.21,2392.22l-401.42,14.09c-47.51,1.68-87.79-35.84-89.47-83.41l-7.49-213.62c-1.46-41.65,27.13-77.67,66.2-87.11,5.53-1.38,11.29-2.14,17.21-2.36l401.36-14.09c47.57-1.68,87.85,35.84,89.47,83.41l5.97,169.19,1.58,44.43c1.68,47.57-35.9,87.79-83.41,89.47Z"/>
    <g class="cls-16">
      <path class="cls-5" d="M1551.21,2392.22l-401.42,14.09c-47.51,1.68-87.79-35.84-89.47-83.41l-7.49-213.62c-1.46-41.65,27.13-77.67,66.2-87.11,23.33,14.34,38.14,23.52,38.14,23.52,25.56,170.78,22.49,298.16,287.92,271.19,91.51-9.3,152.01-38.42,187.95-58.56l1.58,44.43c1.68,47.57-35.9,87.79-83.41,89.47Z"/>
    </g>
    <path class="cls-5" d="M1161.88,2424.67c-30.63,0-59.74-11.48-82.39-32.6-23.71-22.1-37.4-52.01-38.53-84.22l-6.4-182.19c-2.34-66.71,50.03-122.9,116.74-125.24l369.93-12.99c66.65-2.41,122.9,50.02,125.24,116.74l6.4,182.19c1.13,32.2-10.42,63-32.52,86.71-22.1,23.71-52.01,37.4-84.21,38.53l-369.94,12.99-.66-18.82,.66,18.82c-1.44,.05-2.88,.08-4.32,.08Zm363.64-399.64c-.99,0-1.97,.02-2.97,.05l-369.93,12.99c-45.95,1.61-82.03,40.31-80.42,86.27l6.4,182.19c.78,22.15,10.21,42.74,26.56,57.98,16.35,15.24,37.56,23.21,59.7,22.43l369.94-12.99c22.15-.78,42.74-10.21,57.98-26.57,15.24-16.35,23.21-37.55,22.43-59.7l-6.4-182.19c-1.58-44.96-38.66-80.47-83.3-80.47Z"/>
    <path class="cls-2" d="M1567.26,2390.07c-5.16,1.26-10.5,1.98-16.06,2.15l-401.42,14.09c-34.82,1.21-65.74-18.57-80.42-48.04-5.36-10.7-8.57-22.68-8.98-35.37l-3.37-94.9-1.11-31.31-3.07-87.41c-1.68-47.57,35.9-87.78,83.41-89.47l86.74-3.02c-39.72,8.94-68.92,45.25-67.47,87.32l4.02,115.39,3.47,98.29c1.68,47.51,41.96,85.09,89.47,83.41l314.8-11.12Z"/>
    <g class="cls-16">
      <path class="cls-5" d="M1567.26,2390.07c-5.16,1.26-10.5,1.98-16.06,2.15l-401.42,14.09c-47.51,1.68-87.79-35.84-89.41-83.4l-4.48-126.21c10.88,21.95,29.98,48.68,59.1,50.54,15.98,1.05,31.25-10.96,44.52-27.73l3.47,98.29c1.68,47.51,41.96,85.09,89.47,83.41l314.8-11.12Z"/>
    </g>
    <path class="cls-5" d="M1146.65,2425.21c-26.61,0-51.91-9.99-71.61-28.35-20.63-19.24-32.53-45.26-33.5-73.28l-7.5-213.64c-1-28.01,9.04-54.81,28.28-75.44,19.23-20.62,45.25-32.53,73.27-33.53l86.72-3.03c9.66-.31,18.09,6.77,19.34,16.41,1.25,9.64-5.05,18.65-14.53,20.79-31.72,7.16-53.91,35.9-52.77,68.34l7.5,213.64c.62,17.97,8.27,34.68,21.55,47.05,13.27,12.37,30.47,18.83,48.39,18.19l314.84-11.09c9.65-.39,18.03,6.71,19.33,16.31,1.29,9.6-4.9,18.61-14.32,20.84-6.5,1.54-13.19,2.43-19.87,2.62l-401.32,14.11c-1.27,.05-2.54,.07-3.8,.07Zm11.12-387.33l-20.86,.73c-17.96,.64-34.67,8.3-47.04,21.57-12.37,13.27-18.83,30.46-18.19,48.42l7.5,213.65h0c.62,17.97,8.27,34.68,21.54,47.05,13.27,12.37,30.48,18.85,48.39,18.19l23.51-.83c-17.51-18.63-27.55-42.6-28.43-68.25l-7.5-213.63c-.87-24.79,7-48.19,21.08-66.91Z"/>
    <path class="cls-11" d="M1317.59,2207.13c.23,7.9-9,72.01-9,72.01,0,0-20.21,.59-45.02,1.32-31,.91-57.07-30.45-58.23-70.04-1.16-39.59,23.02-72.42,54.02-73.33,20.92-.61,45.02-1.32,45.02-1.32,0,0,12.84,58.49,13.21,71.36Z"/>
    <g class="cls-10">
      <path class="cls-5" d="M1317.59,2207.13c.23,7.9-9,72.01-9,72.01,0,0-20.21,.59-45.02,1.32-31,.91-57.07-30.45-58.23-70.04-1.16-39.59,23.02-72.42,54.02-73.33,20.92-.61,45.02-1.32,45.02-1.32,0,0,12.84,58.49,13.21,71.36Z"/>
    </g>
    <path class="cls-5" d="M1262.27,2292.98c-37.1,0-68.08-36.45-69.43-82.19-.64-21.93,5.53-42.86,17.38-58.95,12.53-17.01,29.85-26.69,48.77-27.24l45.02-1.32c5.89-.16,11.29,3.95,12.58,9.82,2.19,9.96,13.11,60.31,13.5,73.67,.24,8.34-6.92,58.87-9.12,74.16-.87,6.01-5.93,10.53-12.01,10.71l-45.02,1.32c-.56,.02-1.11,.02-1.66,.02Zm32.08-144.41l-34.63,1.02c-11.07,.32-21.5,6.39-29.37,17.08-8.55,11.61-13,27.02-12.52,43.39,.96,32.64,21.24,58.65,45.37,57.91l34.49-1.01c3.86-27.42,7.41-55.03,7.4-59.49-.23-7.39-6.03-36.73-10.74-58.89Z"/>
    <ellipse class="cls-11" cx="1306.48" cy="2207.45" rx="56.15" ry="71.71" transform="translate(-64.25 39.31) rotate(-1.68)"/>
    <g class="cls-10">
      <path class="cls-5" d="M1250.36,2209.12c1.15,39.57,27.22,70.94,58.21,70.04,31.03-.91,55.22-33.75,54.02-73.37-.14-5.34-.78-10.57-1.82-15.57-7.17,27.43-27.14,47.41-51.21,48.08-26.77,.79-49.9-22.49-56.39-54.42-2.08,7.89-3.05,16.4-2.81,25.24Z"/>
    </g>
    <g class="cls-1">
      <path class="cls-2" d="M1250.36,2209.12c.07,2.69,.27,5.35,.61,7.96,5.25-31.2,26.6-54.78,52.78-55.53,28.88-.82,53.53,26.35,57.6,62.12,.99-5.77,1.41-11.72,1.24-17.88-1.15-39.57-27.22-70.94-58.21-70.04-30.99,.95-55.17,33.75-54.02,73.37Z"/>
    </g>
    <path class="cls-5" d="M1307.24,2291.66c-18.28,0-35.47-8.6-48.56-24.36-12.78-15.37-20.17-35.9-20.81-57.83-.64-21.93,5.53-42.86,17.38-58.95,12.53-17.01,29.85-26.69,48.77-27.24,37.86-1.06,69.73,35.75,71.09,82.16,1.36,46.41-28.31,85.08-66.15,86.19-.57,.02-1.14,.02-1.72,.02Zm-1.54-143.41c-.32,0-.64,0-.96,.01-11.07,.32-21.5,6.39-29.37,17.08-8.55,11.61-13,27.02-12.52,43.39,.48,16.37,5.82,31.49,15.04,42.58,8.49,10.21,19.24,15.68,30.32,15.33,24.06-.71,42.85-27.83,41.89-60.47-.94-32.2-20.77-57.92-44.41-57.92Z"/>
    <path class="cls-5" d="M1426.36,2409.18c-7.73,0-14.03-6.22-14.12-13.96l-1.24-108.15c-.34-29.88,14.21-57.74,38.94-74.53,17.28-11.72,27.19-31.18,26.53-52.05l-4.82-152.38c-.25-7.8,5.87-14.32,13.67-14.57,7.85-.27,14.32,5.88,14.57,13.67l4.82,152.38c.97,30.6-13.57,59.13-38.9,76.32-16.86,11.45-26.79,30.45-26.56,50.83l1.24,108.15c.09,7.8-6.16,14.2-13.96,14.29h-.16Z"/>
    <path class="cls-2" d="M730.2,2118.1s-32.68,28.53-29.3,73.31c3.9,51.77,38.09,73.22,38.09,73.22,0,0,116.46,77.05,365.92,29.46,0,0,56.51-83.71-22.13-132.5,0,0-225.52,70.34-352.57-43.49Z"/>
    <g class="cls-16">
      <path class="cls-5" d="M700.83,2190.4s0,0,0,0c3.53,52.49,38.18,74.23,38.18,74.23,0,0,116.44,77.03,365.9,29.47,0,0,43.18-63.99,1.53-112.68-.01,.32-.03,.64-.05,.96-1.78,32.81-24.2,59.46-52.72,63.87-226.62,34.99-332.76-35.2-332.76-35.2,0,0-10.22-6.4-20.08-20.66Z"/>
    </g>
    <path class="cls-5" d="M949.9,2328.5c-146.32,0-217.48-45.64-221.3-48.17-1.34-.83-41.92-26.95-46.48-87.51-4.03-53.56,34.07-87.49,35.7-88.91,7.16-6.25,17.87-6.19,24.96,.16,117.48,105.25,332.25,40.2,334.41,39.53,5.21-1.62,10.89-.9,15.53,1.98,26.54,16.46,42.86,38.24,48.53,64.72,10.22,47.77-19.45,92.45-20.72,94.33-2.81,4.16-7.15,7.02-12.08,7.96-60.26,11.5-113.04,15.91-158.54,15.91Zm-217.43-184.13c-6.82,10.06-14.28,25.87-12.79,45.62,3.08,40.9,28.42,58.08,29.5,58.79,1.24,.8,112.08,70.43,343.81,28.37,5.95-11.24,16.5-35.57,11.37-59.16-3.06-14.05-11.2-25.84-24.81-35.87-42.76,11.71-225.97,54.28-347.08-37.74Z"/>
    <g>
      <path class="cls-12" d="M895.75,1522.34s-508.97,370.84-452.4,794.97c29.44,220.67,177.38,230.46,267.88,213.95,59.5-10.85,55.39-16.43,91.02-33.13,34.44-16.15,89.79-19.9,140.55-23.75,96.32-7.31,165.45-253.07,28.46-333.82-84-49.51-155.43,2.86-178.62,10.48-9.72-10.52-21.43-107.29,18.24-190.17"/>
      <path class="cls-5" d="M906.84,1537.56c-17.43,12.99-35.1,27.4-52.17,41.81-17.16,14.48-33.99,29.38-50.48,44.66-33.01,30.51-64.83,62.34-95.1,95.52-60.47,66.35-115.08,138.18-158.93,215.86-21.87,38.83-40.99,79.12-56.2,120.73-14.93,41.68-25.84,84.68-31.46,128.26-5.66,43.56-5.9,87.68-.36,131.1,5.98,43.23,17.44,85.82,39.25,121.44,11.1,17.52,24.39,33.48,40.59,45.71,7.95,6.29,16.6,11.65,25.72,16.15,9.07,4.57,18.62,8.31,28.55,11.07,19.78,5.74,40.8,8.04,62,7.78,10.6-.11,21.27-.86,31.9-2.22,5.32-.69,10.63-1.47,15.93-2.41,5.32-.96,10.92-1.98,16.22-3.11,10.68-2.24,21.23-4.65,30.17-8,4.52-1.67,8.64-3.58,13.27-6.04l15.09-8.14c5.46-2.8,10.45-5.38,16.49-7.99,3.03-1.36,6.05-2.58,9.06-3.62,3.02-1.16,6.02-2.09,9.02-3.01,12-3.66,23.85-6.14,35.6-8.14,23.49-3.93,46.61-5.97,69.45-7.79l17.06-1.31c1.36-.11,2.95-.2,4.13-.34l2.88-.49,2.9-.39,2.88-.92c7.71-2.3,15.43-6.85,22.58-12.9,7.08-6.24,13.53-13.78,19.38-21.97,5.73-8.35,10.8-17.36,15.24-26.77,8.76-18.92,14.8-39.41,18.46-60.21,3.39-20.86,4.25-42.11,2.15-62.84-2.23-20.7-7.76-40.75-16.66-58.79-9.07-17.94-21.98-33.4-37.74-45.39-3.96-2.97-8.24-5.54-12.39-8.28l-13.4-6.99-13.91-5.36c-4.79-1.13-9.48-2.78-14.31-3.62-19.3-3.56-39.34-2.63-59.01,2.91-9.87,2.51-19.59,6.4-29.38,10.63-4.9,2.13-9.79,4.49-14.93,6.94l-8.05,3.8c-1.52,.67-2.6,1.26-4.49,1.99l-5.3,2.04c-7.06,2.73-14.81,.56-19.5-4.85l-.22-.26-.04-.05c-1.13-1.26-2.2-2.63-3.14-4.01l-1.66-2.83c-.98-1.81-1.56-3.16-2.21-4.67-1.14-2.72-1.95-5.24-2.68-7.65-1.44-4.8-2.39-9.28-3.21-13.79-1.65-8.94-2.44-17.7-2.96-26.43-.44-8.73-.36-17.4-.05-26.05,.48-8.65,1.27-17.25,2.36-25.82,2.6-17.06,5.93-34.1,11.9-50.4,5.92-16.26,14.02-31.91,25.28-45.31,3.45-4.11,9.59-4.64,13.7-1.19,2.73,2.29,3.88,5.76,3.34,9.04l-.05,.28c-2.7,16.04-5.79,31.12-8.33,46.33-2.51,15.17-5.02,30.28-6.03,45.59-.64,7.63-1.02,15.28-1.12,22.92-.26,7.63-.17,15.25,.11,22.8,.21,7.55,.81,15.04,1.56,22.22,.45,3.53,.9,7.09,1.48,10.18l.85,4.04c.09,.39,.23,.95,.16,.95-.05-.06-.13-.1-.22-.13-.34-.56-.81-1.12-1.33-1.56l-.02-.02-19.72-5.11c1.74-.74,3.39-1.29,5.95-2.53l7.37-3.49c5.12-2.44,10.48-5.03,16-7.44,11.05-4.79,22.54-9.38,34.72-12.52,24.08-6.8,50.64-8.35,76.04-3.54,6.35,1.13,12.5,3.15,18.73,4.75,6.03,2.16,11.96,4.58,17.91,6.91l16.85,8.78c5.36,3.46,10.83,6.82,15.96,10.66,20.49,15.48,37.35,35.88,48.76,58.55,11.27,22.76,17.85,47.26,20.49,71.75,2.5,24.53,1.46,49.1-2.46,73.12-4.21,23.97-11.11,47.48-21.46,69.85-5.25,11.16-11.34,22.03-18.49,32.43-7.35,10.31-15.7,20.19-25.73,28.98-10.18,8.63-22.26,16.19-36.35,20.42-1.76,.53-3.5,1.08-5.28,1.55l-5.53,.9-5.55,.8-4.36,.36-16.95,1.3c-22.5,1.77-44.73,3.79-66.11,7.37-10.66,1.81-21.11,4.03-30.87,7.02-2.44,.75-4.87,1.49-7.16,2.39-2.37,.81-4.62,1.73-6.78,2.7-2.11,.84-4.63,2.12-7.03,3.26l-7.17,3.63-14.93,8.05c-5.4,2.88-11.6,5.81-17.76,8.06-12.4,4.58-24.13,7.13-35.68,9.58-45.81,9.87-96.06,13.11-144.08-.73-11.98-3.35-23.72-7.92-34.96-13.57-11.26-5.57-22.05-12.26-31.95-20.06-20.14-15.27-36.44-34.85-49.58-55.7-12.95-21.04-22.4-43.63-29.5-66.55-7.08-22.95-11.83-46.3-15.04-69.67-6.01-46.86-5.72-94.38,.34-140.98,6.02-46.63,17.65-92.29,33.4-136.24,16.03-43.86,36.05-86,58.8-126.4,45.63-80.82,101.92-154.71,163.92-222.76,31.04-34.03,63.6-66.59,97.39-97.82,16.88-15.63,34.11-30.89,51.71-45.74,17.7-14.91,35.26-29.29,54.31-43.48,8.34-6.22,20.14-4.49,26.36,3.85,6.21,8.34,4.49,20.14-3.85,26.35h0s-.32,.24-.32,.24Z"/>
    </g>
    <g class="cls-16">
      <path class="cls-5" d="M942.79,2474.38c-50.73,3.85-106.11,7.61-140.55,23.77-35.61,16.68-31.52,22.27-91.04,33.12-90.47,16.49-238.44,6.72-267.84-213.97l20.53-19.87c47.73,156,173.33,161.77,253.71,147.4,52.28-9.35,131.53-46.58,216.91-42.62,68.73,3.19,96.69-70.26,112.42-134.34,9.86,95.64-41.34,201.71-104.14,206.5Z"/>
    </g>
    <path class="cls-5" d="M704.66,2336.31c-1.26-9.71-1.5-18.37-1.43-27.52,.19-9.02,.84-18.04,1.99-27.01,2.28-17.94,6.52-35.75,12.96-52.88,6.36-17.13,14.42-33.87,24.83-49.15,4.83-7.93,10.75-15.03,16.52-22.31,2.77-3.76,6.12-6.95,9.27-10.35l9.62-10.09c7.19-7.54,19.14-7.83,26.68-.63,7.54,7.19,7.82,19.14,.63,26.68-.38,.4-.78,.78-1.18,1.14l-1.21,1.06-8.95,7.85c-2.95,2.65-6.15,5.11-8.75,8.11-5.46,5.77-11.18,11.38-15.9,17.81-10.2,12.31-18.49,26.17-25.47,40.72-7.06,14.54-12.32,30.07-15.85,46.05-.96,3.98-1.55,8.03-2.36,12.06-.64,4.04-1.18,8.11-1.67,12.18-.84,8.03-1.29,16.62-1.02,24.06l.02,.66c.18,5.19-3.87,9.55-9.07,9.74-4.88,.17-9.03-3.44-9.66-8.19Z"/>
    <path class="cls-5" d="M445.65,2351.27c-.4,0-.81-.01-1.21-.04-10.37-.66-18.24-9.57-17.6-19.94,.3-4.86,8.4-119.99,99.8-199.36,63.4-55.06,150.28-78.65,258.18-70.13,10.37,.82,18.11,9.89,17.29,20.26-.82,10.37-9.88,18.12-20.26,17.29-97.28-7.69-174.7,12.74-230.17,60.72-79.49,68.76-87.17,172.53-87.24,173.57-.65,9.96-8.94,17.62-18.78,17.62Z"/>
    <g>
      <path class="cls-12" d="M525.37,1318.8l17,.25c6.19,.09,11.28-4.85,11.38-11.04l5.46-368.44c.09-6.19-4.85-11.28-11.04-11.38l-17-.25c-64.95-.96-118.38,50.91-119.34,115.85l-2.31,155.67c-.96,64.95,50.91,118.38,115.85,119.34Z"/>
      <path class="cls-5" d="M542.54,1322.44c-.07,0-.15,0-.22,0l-17-.25c-66.71-.99-120.18-56.07-119.19-122.78l2.31-155.67c.99-66.71,55.93-120.15,122.78-119.19l16.99,.25c8.04,.12,14.49,6.76,14.38,14.81l-5.47,368.44c-.06,3.9-1.63,7.54-4.43,10.26-2.74,2.66-6.35,4.12-10.16,4.12Zm-13.14-391.13c-62.2,0-113.26,50.13-114.19,112.53l-2.31,155.67c-.93,62.98,49.54,114.97,112.52,115.91h0l17,.25c2.16,.05,4.07-.75,5.57-2.21,1.5-1.46,2.34-3.41,2.37-5.5l5.47-368.44c.06-4.32-3.4-7.88-7.71-7.94l-17-.25c-.57,0-1.15-.01-1.72-.01Z"/>
    </g>
    <g class="cls-16">
      <path class="cls-5" d="M410.61,1125.5l-.88,58.45c-1.08,73.49,57.63,133.99,131.16,135.1,7.01,.11,12.77-5.52,12.88-12.53l1.47-97.16c-2.03,4.4-6.51,7.39-11.66,7.36l-8.67-.15c-58.1-.85-106.98-38.82-124.31-91.07Z"/>
    </g>
    <path class="cls-5" d="M542.55,1337.89c-.15,0-.31,0-.46,0l-17-.25c-75.23-1.12-135.52-63.23-134.41-138.45l2.31-155.67c1.12-75.23,63.16-135.64,138.45-134.41l16.99,.25c16.56,.24,29.84,13.92,29.6,30.48l-5.47,368.45c-.12,8.02-3.35,15.52-9.11,21.11-5.65,5.48-13.06,8.49-20.92,8.49Zm.1-37.67h0Zm-13.24-353.46c-53.79,0-97.94,43.35-98.75,97.31l-2.31,155.67c-.81,54.46,42.84,99.42,97.3,100.23h0l9.37,.14,5.24-353.2-9.37-.14c-.5,0-.99-.01-1.49-.01Z"/>
    <g>
      <path class="cls-12" d="M1748.68,946.93h17c64.91,0,117.61,52.7,117.61,117.61v155.68c0,64.91-52.7,117.61-117.61,117.61h-17c-6.19,0-11.21-5.02-11.21-11.21v-368.48c0-6.19,5.02-11.21,11.21-11.21Z" transform="translate(17.14 -26.72) rotate(.85)"/>
      <path class="cls-5" d="M1764.56,1340.55c-.61,0-1.21,0-1.82-.01l-16.99-.25c-8.05-.12-14.5-6.76-14.38-14.81l5.47-368.44c.06-3.9,1.63-7.54,4.43-10.26,2.8-2.71,6.42-4.17,10.38-4.12l16.99,.25h0c66.71,.99,120.18,56.07,119.19,122.78l-2.31,155.67c-.98,66.1-55.07,119.2-120.96,119.2Zm-13.14-391.13c-2.05,0-3.98,.78-5.45,2.21-1.5,1.46-2.34,3.41-2.37,5.5l-5.47,368.44c-.06,4.31,3.4,7.88,7.71,7.94l16.99,.25c62.91,.87,114.98-49.54,115.91-112.52l2.31-155.67c.93-62.98-49.54-114.97-112.52-115.91l-17-.25s-.08,0-.12,0Z"/>
    </g>
    <g class="cls-16">
      <path class="cls-5" d="M1736.25,1222.65l-1.49,101.39c-.11,7,5.52,12.77,12.53,12.88,38.59,.56,73.62-15.34,98.33-41.24,22.32-23.39,36.21-54.97,36.74-89.88l.78-52.52c-21.55,45.77-68.53,77.18-122.43,76.39l-13.34-.2c-4.87-.08-8.97-2.84-11.12-6.82Z"/>
    </g>
    <path class="cls-5" d="M1764.56,1356c-.69,0-1.36,0-2.05-.02l-16.99-.25c-16.56-.25-29.84-13.92-29.6-30.48l5.47-368.45c.12-8.02,3.35-15.52,9.11-21.11,5.76-5.59,13.34-8.6,21.37-8.49l17,.25h0c75.23,1.12,135.52,63.23,134.41,138.45l-2.31,155.67c-1.11,74.54-62.1,134.42-136.4,134.42Zm-10.87-37.82l9.37,.14c54.59,.8,99.42-42.84,100.23-97.3l2.31-155.67c.81-54.46-42.84-99.42-97.3-100.23l-9.37-.14-5.24,353.2Z"/>
    <g class="cls-16">
      <path class="cls-5" d="M1573.24,1652.13c-61.61,25.56-160.55,185.93-391.35,201.72-316.35,21.64-481.54-215.42-513.52-257.04l886.79-19.88c5.79,21.99,11.91,47.23,18.08,75.2Z"/>
    </g>
    <g>
      <circle class="cls-2" cx="1146.9" cy="1132.55" r="622.89"/>
      <path class="cls-5" d="M1146.51,1758.83c-329.4,0-606.18-258.24-624.89-591.13h0c-19.38-344.78,245.35-641.05,590.13-660.43,167.01-9.39,327.7,46.82,452.44,158.29,124.74,111.46,198.61,264.83,208,431.85,19.38,344.78-245.35,641.05-590.13,660.43-11.89,.67-23.78,1-35.54,1Zm-618.13-591.51c19.17,341.06,312.2,602.96,653.3,583.75,341.06-19.17,602.93-312.24,583.75-653.3-9.29-165.21-82.36-316.92-205.75-427.18-123.39-110.26-282.36-165.87-447.55-156.57-341.05,19.17-602.93,312.24-583.75,653.3h0Z"/>
    </g>
    <path class="cls-12" d="M526.12,1081.08c-2.38,28.34-2.77,57.19-1.13,86.43,19.36,343.46,313.43,606.23,656.89,586.96,343.46-19.35,606.23-313.43,586.96-656.89-.55-9.88-1.33-19.75-2.35-29.46-24.91,305.09-271.57,552.78-585.82,570.46-333.58,18.73-620.53-228.59-654.53-557.5Z"/>
    <path class="cls-5" d="M1146.5,1774.28c-337.53,0-621.14-264.61-640.31-605.72h0c-19.86-353.29,251.41-656.87,604.69-676.73,171.14-9.62,335.78,47.98,463.6,162.19,127.82,114.21,203.51,271.36,213.13,442.5,19.86,353.29-251.4,656.87-604.69,676.73-12.18,.68-24.37,1.02-36.42,1.02Zm-602.7-607.83c18.69,332.55,304.42,587.91,637,569.19,332.55-18.7,587.89-304.45,569.19-637-9.06-161.09-80.3-309.02-200.62-416.52-120.31-107.5-275.28-161.74-436.38-152.67-332.55,18.7-587.89,304.45-569.19,637Z"/>
    <path class="cls-5" d="M527.89,1183.37c5,121.79,49.18,233.23,120.63,324,53.57,68.05,266.98,182.24,524.38,173.98,238.66-7.66,450.51-143.77,498.31-215.99,63.77-96.33,98.66-211.02,93.66-332.81-13.24-322.28-295.62-444.52-637.22-430.48-341.6,14.03-613,159.01-599.77,481.29Z"/>
    <path class="cls-5" d="M1145.55,1700.63c-260.25,0-460.52-116.41-511.83-181.61-76.55-97.24-119.65-213.04-124.66-334.88-6.53-159.04,52.23-284.3,174.65-372.31,106.53-76.58,259.78-121.04,443.17-128.58,183.42-7.54,339.77,24.21,452.22,91.8,129.22,77.67,198.06,197.69,204.59,356.73,5,121.84-28.46,240.78-96.77,343.97-50.48,76.25-265.21,216.46-513.42,224.42-9.37,.3-18.72,.45-27.95,.45Zm-598.85-518.03c4.68,113.87,45,222.15,116.61,313.12,47.5,60.34,251.81,175.06,508.98,166.81,231.96-7.44,437.88-139.08,483.21-207.56,63.91-96.54,95.22-207.76,90.54-321.64-5.98-145.58-68.68-255.26-186.36-325.99-106.13-63.79-255.29-93.68-431.27-86.45-180.31,7.41-597.92,67.22-581.72,461.7Z"/>
    <g class="cls-6">
      <ellipse class="cls-2" cx="727.1" cy="1131.33" rx="79.88" ry="110.23" transform="translate(-229.66 186.24) rotate(-12.62)"/>
    </g>
    <g class="cls-6">
      <ellipse class="cls-2" cx="833.83" cy="1345.49" rx="43.42" ry="50.6" transform="translate(-419.49 378.64) rotate(-20.56)"/>
    </g>
    <g class="cls-1">
      <path class="cls-3" d="M635.83,877.77c-72.65,75.25-113.24,176.14-107.94,305.58,5,121.81,49.2,233.25,120.61,324.02,53.59,68.05,267.02,182.23,524.41,174,90.89-2.89,177.85-24.44,253.39-54.03-316.61,3.37-576.63-136.85-643.06-221.25-90.7-115.21-146.76-256.67-153.09-411.21-1.72-41.3,.33-80.32,5.67-117.12Z"/>
    </g>
    <path class="cls-5" d="M569.5,917.34c-5.11,0-10.2-2.06-13.91-6.12-6.17-6.77-6.51-16.78-1.26-23.86,105.19-160.33,314.09-258.35,573.36-269.01,261.19-10.73,477.65,72.94,594.03,229.57,6.05,7.59,5.37,18.68-1.83,25.45-7.58,7.13-19.49,6.77-26.62-.8-.14-.15-.35-.38-.48-.53-.35-.4-.69-.82-1.01-1.25-108.75-146.72-313.75-225.01-562.54-214.8-247.4,10.17-445.64,102.31-543.91,252.8-.87,1.33-1.9,2.55-3.08,3.62-3.62,3.3-8.19,4.93-12.74,4.93Z"/>
    <g class="cls-6">
      <path class="cls-2" d="M1633.84,1329.99s86.76-322.03-89.79-441.69c-176.55-119.66-423.04-109.02-416.63-93.45,0,0,275.63,54.86,391.27,266.23,89.18,162.99,115.15,268.91,115.15,268.91Z"/>
    </g>
    <path class="cls-12" d="M1727.45,692.28v65.22H566.35v-65.22c0-65.5,10.83-128.46,30.84-187.22,77.88-228.76,294.59-393.33,549.71-393.33,160.29,0,305.46,64.98,410.52,170.04,62.16,62.16,110.23,138.3,139.19,223.29,20.01,58.77,30.84,121.72,30.84,187.22Z"/>
    <path class="cls-13" d="M1146.38,275.83v481.67h-337.53c-54.2-70.35-96.53-150.92,6.26-138.68,199.47,23.73,194.33-261.25,252.63-325.29,30.8-33.81,78.64-17.71,78.64-17.71Z"/>
    <path class="cls-13" d="M1483.91,757.49h-337.53V275.83s47.84-16.1,78.64,17.71c58.29,64.04,53.16,349.02,252.63,325.29,102.79-12.24,60.46,68.33,6.26,138.68Z"/>
    <path class="cls-2" d="M1727.45,692.28v50.95c0-65.5-10.83-128.46-30.84-187.22-28.96-84.99-77.04-161.14-139.19-223.29-105.05-105.05-250.23-170.04-410.52-170.04-255.12,0-471.83,164.57-549.71,393.33-20.01,58.77-30.84,121.72-30.84,187.22v-50.95c0-65.5,10.83-128.46,30.84-187.22,77.88-228.76,294.59-393.33,549.71-393.33,160.29,0,305.46,64.98,410.52,170.04,62.16,62.16,110.23,138.3,139.19,223.29,20.01,58.77,30.84,121.72,30.84,187.22Z"/>
    <path class="cls-13" d="M1727.45,692.28v65.22H566.35v-65.22c0-65.5,10.83-128.46,30.84-187.22,53.02,57.82,193.2,149.46,549.71,149.46s496.74-91.63,549.71-149.46c20.01,58.77,30.84,121.72,30.84,187.22Z"/>
    <path class="cls-5" d="M1727.45,776.32H566.37c-10.4,0-18.84-8.43-18.84-18.84v-65.2c0-330.5,268.88-599.38,599.38-599.38s599.38,268.88,599.38,599.38v65.2c0,10.4-8.43,18.84-18.84,18.84Zm-1142.25-37.67H1708.62v-46.36c0-309.73-251.98-561.71-561.71-561.71s-561.7,251.98-561.7,561.71v46.36Z"/>
    <path class="cls-12" d="M1406.27,381.97l23.69-174.02c6.47-47.52-24.74-92.01-71.62-102.1l-192.12-41.35c-12.73-2.74-25.9-2.74-38.62,0l-192.12,41.35c-46.88,10.09-78.09,54.58-71.62,102.1l23.69,174.02"/>
    <path class="cls-2" d="M1429.95,207.93l-1.22,9.14c-7.44-34.23-34.28-62.44-70.4-70.21l-192.12-41.34c-12.71-2.78-25.9-2.78-38.61,0l-192.12,41.34c-36.12,7.77-62.96,35.98-70.4,70.26l-1.23-9.18c-6.45-47.51,24.72-92.01,71.62-102.09l192.12-41.34c12.71-2.73,25.9-2.73,38.61,0l192.12,41.34c46.9,10.08,78.12,54.58,71.62,102.09Z"/>
    <path class="cls-5" d="M1396.94,380.7c-.94-22.36,.05-44.46,1.56-66.48,1.51-22.03,4.01-43.92,6.84-65.76l4.18-32.78,1.04-8.19,.26-2.05,.12-1.65,.25-3.26c.29-2.17,.09-4.34,.09-6.51,.07-2.18-.24-4.33-.5-6.48-2.04-17.19-10.62-33.49-23.5-44.92-6.41-5.74-13.84-10.27-21.83-13.35-2.05-.64-3.97-1.61-6.09-2.05-2.21-.51-3.89-1.05-6.5-1.61l-16.18-3.34-64.66-13.65-64.65-13.7-32.33-6.85-15.51-3.24c-4.17-.75-8.4-1.09-12.63-1.09-4.23,.01-8.46,.35-12.63,1.1l-15.51,3.24-32.33,6.85-64.65,13.7-64.66,13.66-16.18,3.34c-2.61,.56-4.3,1.1-6.5,1.61-2.12,.43-4.04,1.41-6.09,2.05-7.99,3.08-15.41,7.61-21.82,13.35-12.88,11.43-21.45,27.73-23.49,44.91-.26,2.15-.57,4.3-.5,6.47,0,2.17-.21,4.34,.09,6.51l.25,3.26,.11,1.65,.26,2.05,1.05,8.19,4.18,32.78c5.7,43.69,10.01,87.57,8.39,132.25-.19,5.28-4.62,9.4-9.9,9.2-4.14-.15-7.57-2.93-8.76-6.66-13.51-42.62-21.09-86.06-27.28-129.68l-4.73-32.71-1.18-8.17-.3-2.05-.25-2.46-.47-4.97c-.42-3.31-.3-6.65-.31-9.99-.09-3.34,.25-6.67,.59-10,2.7-26.63,15.47-52.05,35.21-70.23,9.84-9.12,21.38-16.46,33.85-21.52,3.16-1.13,6.25-2.56,9.5-3.37,3.13-.85,6.73-1.89,9.49-2.52l16.12-3.61,64.55-14.16,64.56-14.12,32.28-7.06,8.07-1.77c2.72-.58,5.15-1.16,8.75-1.85,6.67-1.24,13.45-1.86,20.24-1.88,6.78,.03,13.57,.64,20.24,1.88,3.6,.68,6.02,1.26,8.75,1.85l8.07,1.77,32.28,7.06,64.56,14.12,64.55,14.17,16.12,3.61c2.76,.63,6.36,1.67,9.49,2.52,3.26,.82,6.34,2.24,9.5,3.37,12.47,5.06,24.01,12.4,33.84,21.51,19.74,18.18,32.51,43.59,35.21,70.22,.34,3.33,.68,6.65,.59,9.99-.01,3.34,.11,6.68-.31,9.99l-.48,4.97-.25,2.46-.3,2.04-1.18,8.18-4.73,32.71c-3.11,21.81-6.56,43.57-10.99,65.2-4.44,21.63-9.38,43.19-16.27,64.48-1.63,5.03-7.02,7.78-12.05,6.16-3.91-1.26-6.44-4.82-6.61-8.7Z"/>
    <path class="cls-12" d="M1292.17,112.71l-21.57,492.31-6.69,152.47h-233.98l-6.64-151.86-21.61-492.92c-1.84-42.05,27.41-79.39,68.8-86.88,22.08-4,48.12-7.02,76.42-7.02s54.34,3.01,76.42,7.02c41.44,7.49,70.68,44.83,68.84,86.88Z"/>
    <path class="cls-2" d="M1292.17,112.71l-1.22,27.83c-6.03-34-32.44-61.87-67.62-68.23-22.08-4-48.08-7.02-76.42-7.02s-54.34,3.01-76.42,7.02c-35.13,6.36-61.54,34.23-67.57,68.23l-1.23-27.83c-1.84-42.05,27.41-79.39,68.8-86.88,22.08-4,48.12-7.02,76.42-7.02s54.34,3.01,76.42,7.02c41.44,7.49,70.68,44.83,68.84,86.88Z"/>
    <path class="cls-13" d="M1270.6,605.02l-6.69,152.47h-233.98l-6.64-151.86c34.56,19.97,78.17,38,123.09,38s89.52-18.41,124.22-38.61Z"/>
    <path class="cls-5" d="M1263.9,776.32h-233.98c-10.08,0-18.38-7.94-18.82-18.01l-28.25-644.76c-2.26-51.46,33.98-97.13,84.29-106.24,26.78-4.85,53.62-7.31,79.77-7.31s53,2.46,79.78,7.31c50.3,9.11,86.54,54.78,84.28,106.24l-28.25,644.76c-.44,10.07-8.74,18.01-18.82,18.01Zm-215.96-37.67h197.93l27.46-626.75c1.43-32.73-21.51-61.76-53.36-67.52-24.57-4.45-49.15-6.7-73.07-6.7s-48.49,2.26-73.06,6.7c-31.86,5.77-54.8,34.79-53.36,67.52l27.46,626.75Z"/>
    <path class="cls-12" d="M1808.94,845.06s-131.87,91.51-662.03,91.51-662.03-91.51-662.03-91.51l81.49-150.48s359.85,32.04,580.54,32.04,580.54-32.04,580.54-32.04l81.49,150.48Z"/>
    <path class="cls-2" d="M1747.32,731.31c-75.34,6.45-394.79,32.63-600.42,32.63s-525.08-26.18-600.42-32.63l19.87-36.73s359.85,32.02,580.55,32.02,580.55-32.02,580.55-32.02l19.87,36.73Z"/>
    <path class="cls-13" d="M1808.96,845.08s-131.89,91.49-662.06,91.49-662.02-91.49-662.02-91.49l35.03-64.75c66.87,26.37,241.8,74.68,626.98,74.68s560.07-48.27,626.98-74.68h.05l35.03,64.75Z"/>
    <path class="cls-5" d="M1146.91,955.41c-529.96,0-667.19-90.99-672.77-94.87-7.89-5.47-10.4-16-5.83-24.44l81.49-150.48c3.58-6.61,10.72-10.47,18.23-9.79,.54,.05,54.84,4.87,132.83,10.68,130.2,9.71,313.26,21.28,446.04,21.28,50.03,0,111.58-1.68,182.94-4.99,191.66-8.89,393.91-26.8,395.93-26.98,7.52-.66,14.65,3.18,18.23,9.79l81.49,150.48c4.57,8.44,2.06,18.97-5.83,24.44-5.58,3.87-142.81,94.87-672.77,94.87Zm-636.39-118.13c46.92,21.47,214.31,80.46,636.39,80.46s589.28-58.92,636.39-80.47l-66.53-122.85c-46.96,4.02-219.95,18.35-385.18,26.01-71.94,3.34-134.07,5.03-184.69,5.03-133.94,0-318.01-11.63-448.84-21.38-56.49-4.21-100.62-7.91-121.02-9.65l-66.53,122.86Z"/>
  </g>
</svg>