<?xml version="1.0" encoding="utf-8"?>
<!-- Generator: Adobe Illustrator 26.5.0, SVG Export Plug-In . SVG Version: 6.00 Build 0)  -->
<svg version="1.1" id="Capa_1" xmlns="http://www.w3.org/2000/svg" xmlns:xlink="http://www.w3.org/1999/xlink" x="0px" y="0px"
	 viewBox="0 0 40 40" style="enable-background:new 0 0 40 40;" xml:space="preserve">
<style type="text/css">
	.st0{fill:#FF7A0B;}
</style>
<g>
	<path class="st0" d="M24.1,11.6h-8.3c-2.4,0-4.3,1.9-4.3,4.3v8.3c0,2.4,1.9,4.3,4.3,4.3h8.3c2.4,0,4.3-1.9,4.3-4.3v-8.3
		C28.4,13.5,26.5,11.6,24.1,11.6z M20.1,25.1c-2.8,0-5.1-2.3-5.1-5.1s2.3-5.1,5.1-5.1c2.8,0,5.1,2.3,5.1,5.1
		C25.2,22.8,22.9,25.1,20.1,25.1z M25.5,15.8c-0.7,0-1.2-0.5-1.2-1.2c0-0.7,0.5-1.2,1.2-1.2s1.2,0.5,1.2,1.2S26.2,15.8,25.5,15.8z"
		/>
	<path class="st0" d="M20.1,16.7c-1.8,0-3.3,1.5-3.3,3.3s1.5,3.3,3.3,3.3c1.8,0,3.3-1.5,3.3-3.3S21.9,16.7,20.1,16.7z"/>
	<path class="st0" d="M20,2.3C10.2,2.3,2.3,10.2,2.3,20c0,9.8,7.9,17.7,17.7,17.7S37.7,29.8,37.7,20C37.7,10.2,29.8,2.3,20,2.3z
		 M30.4,24.1c0,3.4-2.8,6.2-6.2,6.2h-8.3c-3.4,0-6.2-2.8-6.2-6.2v-8.3c0-3.4,2.8-6.2,6.2-6.2h8.3c3.4,0,6.2,2.8,6.2,6.2V24.1z"/>
</g>
</svg>
