<?xml version="1.0" encoding="utf-8"?>
<!-- Generator: Adobe Illustrator 26.5.0, SVG Export Plug-In . SVG Version: 6.00 Build 0)  -->
<svg version="1.1" id="Capa_1" xmlns="http://www.w3.org/2000/svg" xmlns:xlink="http://www.w3.org/1999/xlink" x="0px" y="0px"
	 viewBox="0 0 40 40" style="enable-background:new 0 0 40 40;" xml:space="preserve">
<style type="text/css">
	.st0{fill:#FF7A0B;}
</style>
<path class="st0" d="M20,2.3C10.2,2.3,2.3,10.2,2.3,20c0,9.8,7.9,17.7,17.7,17.7c9.8,0,17.7-7.9,17.7-17.7
	C37.7,10.2,29.8,2.3,20,2.3z M29.9,14c0,0.1,0,0.2-0.1,0.3c-0.4,0.6-0.9,1.2-1.5,1.6C28.1,15.9,28,16,28,16.1c0,3.2-0.8,6.4-3.1,8.7
	c-3,2.9-7.4,3.7-11.3,2.6c-0.8-0.2-1.5-0.5-2.2-0.9c-0.2-0.1-0.5-0.2-0.7-0.4c-0.1,0-0.1-0.1,0-0.1c0,0,0.1,0,0.3,0
	c1.1,0.1,2.2-0.1,3.3-0.4c0.6-0.2,1.8-0.6,2.2-1.1c0,0,0,0,0,0c-0.1,0-0.3,0-0.4-0.1c-1.1-0.3-2.5-0.8-3.2-2.6c0-0.1,0-0.2,0.1-0.1
	c0.9,0.1,1.2,0,1.5,0c-0.2,0-0.3-0.1-0.5-0.2c-1.3-0.5-2.3-1.8-2.5-3.2c0-0.2,0-0.3,0-0.5c0-0.1,0.1-0.1,0.1-0.1
	c0.7,0.4,1.5,0.4,1.5,0.4c-0.2-0.1-0.3-0.3-0.5-0.4c-1.2-1.1-1.6-3.4-0.7-4.8c0.1-0.1,0.1-0.1,0.2,0c2.1,2.4,4.8,3.6,8,4
	c0.1,0,0.1,0,0.1-0.1c-0.1-0.6-0.1-1.1,0-1.7c0.1-0.6,0.4-1.1,0.8-1.6c0.4-0.4,0.8-0.8,1.3-1.1c0.5-0.3,1.1-0.4,1.6-0.5
	c0.6,0,1.2,0.1,1.7,0.3c0.4,0.2,0.8,0.4,1.1,0.7c0.1,0.1,0.1,0.1,0.2,0.2c0,0,0.1,0.1,0.2,0c0.8-0.2,1.6-0.5,2.3-0.9
	c0,0,0.1,0,0.1,0c0,0,0,0.1,0,0.1c-0.1,0.4-0.4,0.8-0.7,1.2c-0.2,0.2-0.7,0.8-1,0.9C28.5,14.4,29.2,14.2,29.9,14
	C29.9,13.9,29.9,13.9,29.9,14C29.9,13.9,29.9,13.9,29.9,14z"/>
</svg>
